<?xml version="1.0" encoding="utf-8"?>
<!-- Generator: Adobe Illustrator 16.0.0, SVG Export Plug-In . SVG Version: 6.00 Build 0)  -->
<!DOCTYPE svg PUBLIC "-//W3C//DTD SVG 1.1//EN" "http://www.w3.org/Graphics/SVG/1.1/DTD/svg11.dtd">
<svg version="1.1" id="图层_1" xmlns="http://www.w3.org/2000/svg" xmlns:xlink="http://www.w3.org/1999/xlink" x="0px" y="0px"
	 width="459px" height="186.66px" viewBox="0 0 459 186.66" enable-background="new 0 0 459 186.66" xml:space="preserve">
<g>
	<path d="M414.324,186.048h28.151v-8.874h-18.054v-27.54h-10.404v36.414H414.324z M380.052,186.048h28.152v-8.874H390.15v-27.54
		h-10.404v36.414H380.052z M333.846,186.048h10.71l2.754-6.426h14.383l2.754,6.426h11.016l-15.912-36.72h-9.792L333.846,186.048
		L333.846,186.048z M350.37,171.666l4.284-10.404l4.283,10.404H350.37L350.37,171.666z M292.842,186.354h8.874l7.344-21.114
		l7.345,21.114h8.874l12.546-36.721H327.42l-6.426,21.114l-7.038-21.114h-8.874l-7.038,21.114l-6.426-21.114h-11.017
		L292.842,186.354L292.842,186.354z M234.702,186.048h29.988v-8.567H244.8v-5.814h17.748v-7.956H244.8v-5.508h19.584v-8.568h-29.987
		v36.414H234.702z M194.004,186.048h10.404v-13.77h12.852v13.77h10.404v-36.414H217.26v13.771h-13.158v-13.771h-10.404v36.414
		H194.004z M165.546,186.048h10.404v-27.54h11.016v-8.874H154.53v8.874h11.016V186.048L165.546,186.048z M107.1,186.048h10.404
		V172.89h17.442v-8.262h-17.442v-6.12h19.278v-8.874H107.1V186.048L107.1,186.048z M71.298,186.048h10.404V172.89h17.442v-8.262
		H81.702v-6.12h19.278v-8.874H71.298V186.048L71.298,186.048z M25.092,167.688c0,10.403,8.568,18.972,19.89,18.972
		c11.322,0,20.196-8.568,20.196-18.972l0,0c0-10.404-8.568-18.973-19.89-18.973C33.66,148.716,25.092,157.284,25.092,167.688
		L25.092,167.688 M54.468,167.688c0,5.201-3.672,9.792-9.486,9.792c-5.508,0-9.486-4.591-9.486-9.792l0,0
		c0-5.202,3.672-9.792,9.486-9.792C50.49,157.896,54.468,162.486,54.468,167.688L54.468,167.688 M450.738,164.322h7.038L459,149.328
		h-7.038L450.738,164.322L450.738,164.322z M7.038,149.328H0l1.224,14.994h7.038L7.038,149.328L7.038,149.328z M439.722,164.322
		h7.038l1.225-14.994h-7.038L439.722,164.322L439.722,164.322z M19.278,164.322H12.24l-1.224-14.994h7.038L19.278,164.322
		L19.278,164.322z"/>
	<path fill="#D6000F" d="M179.01,89.046l9.18-27.54l9.18,27.54H179.01L179.01,89.046z M144.126,116.893h23.868l4.59-12.853h31.518
		l4.59,12.853h23.562L201.96,34.272h-25.092L144.126,116.893L144.126,116.893z M398.718,111.996c0,0.307-0.306,0.611-0.918,0.611
		h-0.918v-1.223h0.918C398.412,111.078,398.718,111.385,398.718,111.996L398.718,111.996z M399.636,111.689
		c0-0.918-0.611-1.529-1.836-1.529h-2.142v4.59h0.918v-1.529h0.918l0.918,1.529h1.224l-1.224-1.529
		C399.33,112.914,399.636,112.607,399.636,111.689L399.636,111.689z M401.472,112.607c0,2.143-1.529,3.979-3.978,3.979
		c-2.143,0-3.979-1.836-3.979-3.979c0-2.141,1.53-3.978,3.979-3.978C399.636,108.936,401.472,110.466,401.472,112.607
		L401.472,112.607z M402.084,112.607c0-2.447-1.836-4.283-4.284-4.283s-4.284,2.142-4.284,4.283c0,2.449,1.836,4.285,4.284,4.285
		C399.942,117.198,402.084,115.057,402.084,112.607L402.084,112.607z M262.242,75.276l30.906,41.922h19.277V34.272h-22.338v44.982
		l-28.152-44.982h-21.42v82.926h21.42V75.276H262.242z M56.916,0c0.306,0.612,41.616,117.198,41.616,117.198h24.786l38.25-96.696
		h237.457l1.836-20.196H143.514l-31.518,79.866L83.538,0H56.916 M394.128,57.528h-19.89c-1.836-4.896-3.979-8.568-15.301-8.568
		c-7.649,0-11.016,3.06-11.016,6.426c0,3.366,2.754,6.426,11.322,8.262l18.054,4.896c11.935,3.06,17.442,12.546,17.442,22.338
		c0,5.509-1.225,12.24-6.427,17.748c-3.978,3.978-9.792,9.486-29.376,9.486c-26.928,0-35.802-17.136-35.802-27.234h21.114
		c2.142,7.65,7.344,10.404,17.441,10.404c7.038,0,13.158-2.448,13.158-7.956c0-5.202-4.283-7.038-10.098-8.568l-14.382-3.978
		c-6.732-2.142-12.546-3.672-16.83-7.344c-10.71-8.874-9.792-25.398,1.836-33.66c6.426-4.59,12.852-7.038,23.256-7.038
		c12.24,0,19.278,3.366,24.786,7.344C388.314,43.146,394.128,51.102,394.128,57.528"/>
</g>
</svg>
